<?xml version="1.0" encoding="utf-8"?>
<!-- Generator: Adobe Illustrator 28.0.0, SVG Export Plug-In . SVG Version: 6.00 Build 0)  -->
<svg version="1.1" id="Layer_1" xmlns="http://www.w3.org/2000/svg" xmlns:xlink="http://www.w3.org/1999/xlink" x="0px" y="0px"
	 viewBox="0 0 1500 1500" style="enable-background:new 0 0 1500 1500;" xml:space="preserve">
<style type="text/css">
	.st0{fill:#9B5647;}
	.st1{fill:none;stroke:#FFFFFF;stroke-width:6.3;stroke-miterlimit:10;}
	.st2{fill:#FFFFFF;}
	.st3{fill:none;stroke:#FFFFFF;stroke-width:4.1328;stroke-miterlimit:10;}
</style>
<circle class="st0" cx="251" cy="696.2" r="141.1"/>
<g>
	<line class="st1" x1="250.6" y1="581.6" x2="250.6" y2="836.8"/>
	<line class="st1" x1="251" y1="638" x2="277.8" y2="610.4"/>
	<line class="st1" x1="251.4" y1="697.7" x2="308.5" y2="642.9"/>
	<line class="st1" x1="250.4" y1="673.7" x2="271" y2="652.1"/>
	<line class="st1" x1="222.4" y1="611" x2="250.4" y2="637.8"/>
	<line class="st1" x1="195" y1="644.3" x2="252.4" y2="700.5"/>
	<polyline class="st1" points="354,656 346.4,658.8 323.6,666.7 302,691.7 250.4,747.1 250.8,741.5 183.7,674.1 175.2,665.9 
		150,658.4 	"/>
	<line class="st1" x1="231.1" y1="652.1" x2="252" y2="672.9"/>
	<line class="st1" x1="153.5" y1="694.3" x2="202.8" y2="694.5"/>
	<polyline class="st1" points="167,718.7 192.8,719.5 249,763 251,767.5 309.1,719.5 331.7,719.5 	"/>
	<polyline class="st1" points="171.2,744.1 199.4,744.1 250,786 250.8,789 301.4,744.3 326.6,743.9 	"/>
	<line class="st1" x1="346.4" y1="693.3" x2="300.4" y2="693.1"/>
	<line class="st1" x1="276" y1="767.9" x2="304.5" y2="780"/>
	<line class="st1" x1="227" y1="768.1" x2="198.4" y2="779"/>
	<circle class="st2" cx="250.8" cy="578.2" r="11.3"/>
	<circle class="st2" cx="276.4" cy="646.3" r="11.3"/>
	<circle class="st2" cx="225.8" cy="646.3" r="11.3"/>
	<circle class="st2" cx="150" cy="657" r="11.3"/>
	<circle class="st2" cx="352.2" cy="655.8" r="11.3"/>
	<circle class="st2" cx="337.1" cy="718.1" r="11.3"/>
	<circle class="st2" cx="333.3" cy="745.3" r="11.3"/>
	<circle class="st2" cx="165.8" cy="718.5" r="11.3"/>
	<circle class="st2" cx="169.4" cy="745.1" r="11.3"/>
	<circle class="st2" cx="308.5" cy="720.1" r="11.3"/>
	<circle class="st2" cx="194.6" cy="720.6" r="12.6"/>
	<circle class="st3" cx="190.5" cy="781" r="8.3"/>
	<circle class="st3" cx="312.1" cy="782.8" r="8.3"/>
	<circle class="st2" cx="145.4" cy="693.1" r="14.7"/>
	<circle class="st2" cx="179.9" cy="667.5" r="12.9"/>
	<circle class="st2" cx="321.4" cy="667.3" r="12.9"/>
	<circle class="st2" cx="285.5" cy="601.7" r="13.3"/>
	<circle class="st2" cx="216.6" cy="602.6" r="13.3"/>
	<circle class="st2" cx="186.9" cy="633.8" r="15.5"/>
	<circle class="st2" cx="313.1" cy="634.8" r="15.5"/>
	<circle class="st2" cx="355.9" cy="692.5" r="15.5"/>
</g>
<path class="st0" d="M430.1,839.7L430.1,839.7c-0.9,0-1.6-0.7-1.6-1.6V554.4c0-0.9,0.7-1.6,1.6-1.6l0,0c0.9,0,1.6,0.7,1.6,1.6v283.7
	C431.7,838.9,431,839.7,430.1,839.7z"/>
<g>
	<path class="st0" d="M454.1,624.7h56.5c11.1,0,19.6,2.4,25.5,7.3c5.9,4.9,8.8,11,8.8,18.4c0,6.1-2.1,11.4-6.2,15.7
		c-4.1,4.3-10.3,7.7-18.5,10.2c10.2,2.2,17.9,5.5,23,10.2c5.1,4.6,7.7,10.4,7.7,17.5c0,5.4-1.5,10.1-4.4,14.3
		c-2.9,4.2-7.7,7.7-14.5,10.6c-6.8,2.9-14.4,4.3-23,4.3h-54.8v-5.5h8.9c2.7,0,4.7-0.4,5.9-1.3s1.9-1.9,1.9-3v-86.8
		c0-2.1-0.6-3.6-1.8-4.7c-1.2-1-3-1.6-5.3-1.6h-9.5V624.7z M486.5,674.5H507c6.3,0,11.3-1.9,15.1-5.6c3.7-3.7,5.6-9.8,5.6-18.2
		c0-5.2-0.9-9.3-2.7-12.2c-1.8-2.9-4.4-5.1-7.8-6.4c-3.4-1.3-9.3-2-17.6-2c-5.9,0-9.6,0.4-11,1.3c-1.4,0.9-2.1,2.4-2.1,4.5V674.5z
		 M486.5,679.9v41.7c0,2,0.6,3.4,1.7,4.4c1.1,1,3.2,1.5,6.2,1.5h13.1c8.7,0,15.1-1.9,19.3-5.7c4.1-3.8,6.2-9.8,6.2-17.9
		c0-7.4-2.1-13.3-6.4-17.5c-4.3-4.3-10.2-6.4-17.8-6.4H486.5z"/>
	<path class="st0" d="M558.7,664.4h32.9v5h-3.1c-2.9,0-4.8,0.4-5.9,1.1c-1.1,0.8-1.6,1.8-1.6,3.3c0,0.6,0.1,1.3,0.4,1.9l19.1,41.2
		l14.2-34.2c1-2.4,1.5-4.8,1.5-7.2c0-1.8-0.7-3.2-2.1-4.2c-1.4-1-4.2-1.6-8.5-1.9v-5h28.6v5c-5.5,0.5-9.2,3-11.1,7.4l-25.4,59.1
		c-4.3,10-8.6,16.9-13,20.7c-4.4,3.8-9.1,5.7-14.1,5.7c-3.7,0-6.6-1-8.8-3c-2.2-2-3.3-4.5-3.3-7.4c0-2.2,0.7-4,2.1-5.4
		c1.4-1.4,3.1-2.1,5.1-2.1c1.9,0,3.4,0.6,4.7,1.8c1.3,1.2,1.9,2.7,1.9,4.4c0,0.5-0.1,1.3-0.3,2.2c-0.2,0.7-0.3,1.3-0.3,1.6
		c0,1.2,0.8,1.8,2.3,1.8c1.6,0,3.4-0.6,5.5-1.8c2-1.2,3.9-3.1,5.7-5.6c1.8-2.6,4.8-8.3,9.2-17.2l-26-55.8c-0.9-2-2.1-3.4-3.5-4.4
		c-1.4-1-3.4-1.6-6.1-1.9V664.4z"/>
	<path class="st0" d="M658.9,636.4h4.9v28H686v6.7h-22.2v44c0,3.8,0.9,6.7,2.7,8.8c1.8,2,4.1,3,6.9,3c3.3,0,6.2-1.5,8.5-4.6
		s3.7-8.2,4.1-15.2h4.9c-0.3,9.1-2.4,15.9-6.2,20.3c-3.9,4.4-8.9,6.6-15,6.6c-5.7,0-10.1-1.5-13.3-4.7s-4.8-7.2-4.8-12.2v-46.1
		h-11.9V666c5.4-0.9,9.6-3.2,12.4-6.8C656.3,653.8,658.6,646.2,658.9,636.4z"/>
	<path class="st0" d="M763.6,699.2h-49.1c0.2,10.4,2.2,17.8,5.9,22.1c4.2,4.8,9.5,7.3,16,7.3c9.6,0,17.3-5.4,23.1-16.3l4.8,2.1
		c-7.1,13.9-17.4,20.8-30.9,20.8c-9.2,0-16.9-3.3-23.2-10c-6.3-6.6-9.4-15.1-9.4-25.5c0-11.1,3.1-20.1,9.3-27
		c6.2-6.9,13.8-10.3,22.8-10.3c6.6,0,12.4,1.7,17.2,5.1c4.8,3.4,8.5,8.3,10.9,14.7C762.6,686.7,763.5,692.4,763.6,699.2z M714.4,694
		h29.7c1.8,0,3.1-0.6,4.1-1.8c1-1.2,1.5-3.2,1.5-6.1c0-5.4-1.7-9.9-5-13.7c-3.3-3.8-7.3-5.6-11.8-5.6c-5.1,0-9.4,2.3-12.9,6.8
		C716.4,678.1,714.6,684.9,714.4,694z"/>
	<path class="st0" d="M796,663.2c1.1,5.1,1.7,10.1,1.9,14.8c3.4-5.4,6.9-9.2,10.6-11.4c3.7-2.2,7.8-3.4,12.1-3.4
		c4.7,0,9.2,1.4,13.4,4.3c4.3,2.9,7.7,7.1,10.4,12.7s4,11.8,4,18.8c0,11.2-3.3,20.3-9.8,27.3c-5.4,5.9-11.9,8.8-19.4,8.8
		c-4.3,0-8.2-1.1-11.6-3.3s-6.5-5.5-9.2-9.8v27.8c0,2.1,0.5,3.7,1.5,4.5c1.3,1.2,3.1,1.8,5.5,1.8h5.1v5.2h-36.7V756h5.1
		c2.3,0,4.1-0.5,5.3-1.4c1.2-0.9,1.8-2.1,1.8-3.7v-72.2c0-3.4-0.8-5.7-2.4-7.1s-4.8-2.2-9.7-2.3v-4.9L796,663.2z M817.2,669.8
		c-5.3,0-9.8,2.6-13.5,7.7c-3.7,5.1-5.5,12.5-5.5,22.3c0,9.8,1.8,17.1,5.3,21.8s8.1,7,13.6,7c5.2,0,9.1-2,11.9-6
		c3.6-5.3,5.3-13,5.3-23.1c0-10.6-1.6-18.2-4.8-22.8S822.3,669.8,817.2,669.8z"/>
	<path class="st0" d="M892.7,662.4c9.2,0,17,3.3,23.3,10c6.3,6.7,9.4,15.4,9.4,26.3c0,7.5-1.4,13.9-4.2,19.2
		c-2.8,5.3-6.8,9.5-12,12.6c-5.2,3.1-10.8,4.6-16.8,4.6c-8.9,0-16.4-3.4-22.6-10.1s-9.3-15.5-9.3-26.2c0-10.8,3.1-19.6,9.3-26.3
		C876,665.7,883.6,662.4,892.7,662.4z M892.7,667.6c-5.5,0-10,2.5-13.5,7.4c-3.5,5-5.3,12.8-5.3,23.5c0,10.9,1.7,18.8,5.2,23.9
		c3.5,5,8,7.5,13.5,7.5c5.7,0,10.3-2.5,13.9-7.5c3.5-5,5.3-13.3,5.3-24.7c0-10.6-1.7-18.3-5.2-23
		C903.2,669.9,898.5,667.6,892.7,667.6z"/>
	<path class="st0" d="M934.2,664.4l24.7-1.2v27.8c2.6-9.1,5.8-16,9.5-20.7c3.7-4.7,8.3-7,13.8-7c3.7,0,6.7,1.1,8.9,3.4
		c2.2,2.3,3.3,5.3,3.3,9.1c0,3.1-0.7,5.5-2.2,7.2c-1.5,1.7-3.4,2.6-5.6,2.6c-2.2,0-4-0.7-5.3-2.2c-1.3-1.5-2-3.4-2-5.9
		c0-1.6,0.4-3.1,1.2-4.5c0.7-1.3,1.1-2,1.1-2.3c0-0.7-0.5-1.1-1.4-1.1c-2,0-4.3,1.2-6.8,3.5c-3.5,3.3-6.2,7.8-8.1,13.5
		c-2.9,8.9-4.4,16-4.4,21.3v14.7c0,1.7,0.6,2.9,1.8,3.8s3.2,1.3,6,1.3h8.7v5.5h-42.6v-5.5h6.8c2.3,0,4-0.5,5.2-1.4s1.8-2,1.8-3.3
		v-43.7c0-3.3-0.7-5.7-2.1-7.3c-1.4-1.5-3.4-2.3-6.1-2.3h-6V664.4z"/>
	<path class="st0" d="M1020,636.4h4.9v28h22.2v6.7h-22.2v44c0,3.8,0.9,6.7,2.7,8.8c1.8,2,4.1,3,6.9,3c3.3,0,6.2-1.5,8.5-4.6
		s3.7-8.2,4.1-15.2h4.9c-0.3,9.1-2.4,15.9-6.2,20.3c-3.9,4.4-8.9,6.6-15,6.6c-5.7,0-10.1-1.5-13.3-4.7s-4.8-7.2-4.8-12.2v-46.1
		h-11.9V666c5.4-0.9,9.6-3.2,12.4-6.8C1017.4,653.8,1019.7,646.2,1020,636.4z"/>
	<path class="st0" d="M1101.7,624.7h50.2v5.5h-12c-1.9,0-3.3,0.5-4.2,1.5c-0.9,1-1.4,2.6-1.4,4.7v85.5c0,2.1,0.6,3.5,1.7,4.4
		c1.1,0.9,3.4,1.3,6.9,1.3h15.2c8.1,0,14.7-2.7,19.9-8.1c5.1-5.4,8.9-14.8,11.2-28.1h5.1l-2.5,41.7h-90.2v-5.5h8.9
		c3,0,5.2-0.6,6.4-1.7c1.2-1.1,1.8-3,1.8-5.5v-84.6c0-1.8-0.5-3.2-1.5-4.1c-1-0.9-2.5-1.4-4.5-1.4h-11V624.7z"/>
	<path class="st0" d="M1274.5,725.5l2.6,4.1c-3.6,3.7-7.5,5.5-11.9,5.5c-3.3,0-6.1-0.9-8.4-2.7c-2.3-1.8-4.3-5-6-9.5
		c-4.6,4.9-8.7,8.1-12.2,9.8c-3.5,1.6-7.7,2.5-12.7,2.5c-7,0-12.4-1.5-16-4.5s-5.5-6.9-5.5-11.6c0-7.1,4.2-13,12.6-17.8
		c8.4-4.7,19.5-7.8,33.4-9.4v-10.4c0-3.7-1.5-6.9-4.5-9.5c-3-2.6-6.8-4-11.4-4c-4.2,0-7.9,0.9-11,2.6c-2.2,1.3-3.3,2.6-3.3,3.9
		c0,0.7,0.6,1.9,1.8,3.4c1.4,2,2.1,3.7,2.1,5.2c0,2.2-0.7,4-2.1,5.4c-1.4,1.4-3.3,2.1-5.6,2.1c-2.4,0-4.5-0.8-6.1-2.5
		c-1.6-1.7-2.5-3.8-2.5-6.4c0-4.8,2.7-9.3,8.2-13.3c5.4-4,12.6-6,21.4-6c8.2,0,14.4,1.8,18.7,5.3c4.3,3.6,6.4,7.9,6.4,13v37.5
		c0,3.3,0.5,5.8,1.6,7.3c1.1,1.6,2.5,2.4,4.2,2.4C1270.4,727.9,1272.4,727.1,1274.5,725.5z M1250.5,696.6
		c-12.4,1.7-21.2,4.5-26.4,8.3c-3.9,2.9-5.8,7.1-5.8,12.5c0,3.8,1,6.7,3,8.8c2,2.1,4.6,3.2,7.8,3.2c5.8,0,10.8-2.2,15-6.6
		c4.2-4.4,6.3-9.9,6.3-16.4V696.6z"/>
	<path class="st0" d="M1306.7,623.5v51c2.9-4.1,6.1-7.1,9.6-9.1s7.3-3,11.5-3c8.1,0,14.9,3.1,20.4,9.4s8.3,14.6,8.3,24.9
		c0,11.2-3,20.2-9,27.1c-6,6.9-13.4,10.3-22.2,10.3c-4.2,0-8-0.8-11.4-2.5c-3.4-1.7-6.9-4.5-10.5-8.4c-2.8,4.4-5.5,8.1-8.1,10.9
		l-2.9-1c1.4-5.6,2.1-11.5,2.1-17.6v-77.6c0-2.4-0.8-4.3-2.5-5.6c-1.7-1.4-4.1-2.1-7.1-2.1h-3.1v-5.5L1306.7,623.5z M1325.1,668.9
		c-5.5,0-10,2.4-13.5,7.2c-3.5,4.8-5.2,12.7-5.2,23.8c0,10.5,1.7,18.1,5.1,22.6c3.4,4.5,7.9,6.8,13.4,6.8c5,0,9-2.2,12-6.7
		c3.8-5.7,5.7-13.7,5.7-24.2c0-10.3-1.7-17.8-5-22.5C1334.3,671.2,1330.2,668.9,1325.1,668.9z"/>
	<path class="st0" d="M1377.1,707.2c3,8.4,6.5,14.3,10.4,17.5c3.9,3.2,8.8,4.9,14.5,4.9c5.3,0,9.4-1.2,12.3-3.5
		c2.9-2.3,4.3-5.3,4.3-8.8c0-2.1-0.5-3.8-1.6-5.4s-2.5-2.7-4.4-3.4c-1.9-0.8-6.7-1.9-14.5-3.3c-7.4-1.5-12.6-3-15.6-4.6
		c-2.9-1.6-5.2-3.8-6.9-6.7c-1.6-2.8-2.5-5.9-2.5-9.2c0-5,1.7-9.6,5.1-13.7c4.4-5.2,10.4-7.8,18.3-7.8c6,0,11.5,1.9,16.6,5.6
		l4.8-5.1h3l1.9,24.5h-4.9c-2.2-6.9-5.1-11.9-8.7-15c-3.7-3.1-8.2-4.6-13.6-4.6c-4.6,0-8.3,1.1-10.9,3.4c-2.6,2.3-4,5-4,8.3
		c0,2.9,1.2,5.3,3.7,7.2c2.4,2,7.1,3.5,14.1,4.6c8.1,1.4,13.4,2.5,15.8,3.5c4,1.5,7.1,3.7,9.3,6.8c2.2,3.1,3.3,6.8,3.3,11.2
		c0,6.1-2.4,11.2-7.2,15.4s-10.8,6.3-18.2,6.3c-6.8,0-13.1-2.2-18.9-6.7l-5.4,6.2h-3.9l-1.5-27.3H1377.1z"/>
</g>
<g>
</g>
<g>
</g>
<g>
</g>
<g>
</g>
<g>
</g>
<g>
</g>
</svg>
